name Walk7.mot
datacolumns 19
datarows 30
range 1.26000000 1.40500000
endheader

                time	   L_ground_force_vx	   L_ground_force_vy	   L_ground_force_vz	   L_ground_force_px	   L_ground_force_py	   L_ground_force_pz	   R_ground_force_vx	   R_ground_force_vy	   R_ground_force_vz	   R_ground_force_px	   R_ground_force_py	   R_ground_force_pz	   L_ground_torque_x	   L_ground_torque_y	   L_ground_torque_z	   R_ground_torque_x	   R_ground_torque_y	   R_ground_torque_z	
          1.26000000	         -5.19489906	         85.37157781	         -7.26029333	         -0.07735763	          0.00000000	         -0.00415841	         -0.00000000	          0.00000000	         -0.00000000	          0.00000000	          0.00000000	          0.00000000	          0.00000000	          0.11728402	          0.00000000	          0.00000000	          0.00000000	          0.00000000	
          1.26500000	         -9.96234485	        125.37075451	         -8.59313636	         -0.16932244	          0.00000000	         -0.00963269	         -0.00000000	          0.00000000	         -0.00000000	         -0.00000000	          0.00000000	         -0.00000000	          0.00000000	          0.19199233	          0.00000000	          0.00000000	          0.00000000	          0.00000000	
          1.27000000	        -15.11008857	        164.52724942	         -9.67001980	         -0.24966360	          0.00000000	         -0.01464395	         -0.00000000	          0.00000000	         -0.00000000	         -0.00000000	          0.00000000	         -0.00000000	          0.00000000	          0.27569843	          0.00000000	          0.00000000	          0.00000000	          0.00000000	
          1.27500000	        -20.59584328	        201.19706941	        -10.24402209	         -0.31595401	          0.00000000	         -0.01908883	         -0.00000000	         -0.00000000	         -0.00000000	         -0.00000000	          0.00000000	         -0.00000000	          0.00000000	          0.36763723	          0.00000000	          0.00000000	          0.00000000	          0.00000000	
          1.28000000	        -26.37612096	        234.78755410	        -10.10121105	         -0.36773664	          0.00000000	         -0.02295967	         -0.00000000	         -0.00000001	         -0.00000000	         -0.00000000	          0.00000000	         -0.00000000	          0.00000000	          0.46710461	          0.00000000	          0.00000000	          0.00000000	          0.00000000	
          1.28500000	        -32.37071857	        265.32187273	         -9.11365491	         -0.40585938	          0.00000000	         -0.02630033	         -0.00000000	         -0.00000001	         -0.00000000	         -0.00000000	          0.00000000	         -0.00000000	          0.00000000	          0.57230458	          0.00000000	          0.00000000	          0.00000000	          0.00000000	
          1.29000000	        -38.45818660	        293.03333543	         -7.24888794	         -0.43194722	          0.00000000	         -0.02917482	          0.00000000	         -0.00000002	         -0.00000000	         -0.00000000	          0.00000000	         -0.00000000	          0.00000000	          0.67994492	          0.00000000	          0.00000000	         -0.00000000	          0.00000000	
          1.29500000	        -44.48791848	        318.25943571	         -4.56654390	         -0.44800814	          0.00000000	         -0.03164611	          0.00000000	         -0.00000002	         -0.00000000	         -0.00000000	          0.00000000	         -0.00000000	          0.00000000	          0.78602810	          0.00000000	          0.00000000	         -0.00000000	          0.00000000	
          1.30000000	        -50.31287221	        341.39268349	         -1.21430869	         -0.45614999	          0.00000000	         -0.03376422	          0.00000000	         -0.00000003	         -0.00000000	         -0.00000000	          0.00000000	         -0.00000000	          0.00000000	          0.88729548	          0.00000000	          0.00000000	         -0.00000000	          0.00000000	
          1.30500000	        -55.82463705	        362.83084391	          2.58968161	         -0.45837909	          0.00000000	         -0.03556874	          0.00000000	         -0.00000004	         -0.00000000	         -0.00000000	          0.00000000	         -0.00000000	          0.00000000	          0.98254046	          0.00000000	          0.00000000	         -0.00000000	          0.00000000	
          1.31000000	        -60.96083244	        382.97825635	          6.60589310	         -0.45646960	          0.00000000	         -0.03709194	          0.00000000	         -0.00000005	         -0.00000000	         -0.00000000	          0.00000000	         -0.00000000	          0.00000000	          1.07297800	          0.00000000	          0.00000000	         -0.00000000	          0.00000000	
          1.31500000	        -65.69175746	        402.27151070	         10.62251270	         -0.45190006	          0.00000000	         -0.03836190	          0.00000000	         -0.00000006	         -0.00000000	         -0.00000000	          0.00000000	         -0.00000000	          0.00000000	          1.16147692	          0.00000000	          0.00000000	         -0.00000000	          0.00000000	
          1.32000000	        -70.00364995	        421.15635268	         14.46933448	         -0.44584274	          0.00000000	         -0.03940488	          0.00000000	         -0.00000006	         -0.00000000	         -0.00000000	          0.00000000	         -0.00000000	          0.00000000	          1.25148676	          0.00000000	          0.00000000	         -0.00000000	          0.00000000	
          1.32500000	        -73.88251047	        440.00153062	         18.01084081	         -0.43918330	          0.00000000	         -0.04024286	          0.00000001	         -0.00000006	          0.00000000	         -0.00000000	          0.00000000	         -0.00000000	          0.00000000	          1.34638993	          0.00000000	          0.00000000	         -0.00000000	          0.00000000	
          1.33000000	        -77.30376422	        459.01383035	         21.14234343	         -0.43255417	          0.00000000	         -0.04089481	          0.00000001	         -0.00000006	          0.00000000	         -0.00000000	          0.00000000	         -0.00000000	          0.00000000	          1.44905088	          0.00000000	          0.00000000	         -0.00000000	          0.00000000	
          1.33500000	        -80.23147326	        478.21309693	         23.79707543	         -0.42637553	          0.00000000	         -0.04138129	          0.00000001	         -0.00000004	          0.00000000	         -0.00000000	          0.00000000	         -0.00000000	          0.00000000	          1.56110753	          0.00000000	          0.00000000	         -0.00000000	          0.00000000	
          1.34000000	        -82.62396277	        497.46744067	         25.95512038	         -0.42089615	          0.00000000	         -0.04172579	          0.00000001	         -0.00000001	          0.00000001	          0.00000000	          0.00000000	          0.00000000	          0.00000000	          1.68198467	          0.00000000	          0.00000000	         -0.00000000	          0.00000000	
          1.34500000	        -84.44546634	        516.54878219	         27.64294126	         -0.41623263	          0.00000000	         -0.04195445	          0.00000001	          0.00000003	          0.00000001	          0.00000000	          0.00000000	          0.00000000	          0.00000000	          1.80848723	          0.00000000	          0.00000000	         -0.00000000	          0.00000000	
          1.35000000	        -85.67935471	        535.18142988	         28.92060538	         -0.41240506	          0.00000000	         -0.04209354	          0.00000001	          0.00000010	          0.00000001	          0.00000000	          0.00000000	          0.00000000	          0.00000000	          1.93544281	          0.00000000	          0.00000000	         -0.00000000	          0.00000000	
          1.35500000	        -86.33251025	        553.07502337	         29.86033536	         -0.40936651	          0.00000000	         -0.04216827	          0.00000000	          0.00000020	          0.00000002	          0.00000000	          0.00000000	          0.00000000	          0.00000000	          2.05682754	          0.00000000	          0.00000000	         -0.00000000	          0.00000000	
          1.36000000	        -86.42989282	        569.94636806	         30.52787935	         -0.40702668	          0.00000000	         -0.04220232	         -0.00000000	          0.00000033	          0.00000002	          0.00000000	          0.00000000	          0.00000000	          0.00000000	          2.16693701	          0.00000000	          0.00000000	          0.00000000	          0.00000000	
          1.36500000	        -86.00983623	        585.53620105	         30.97812568	         -0.40527367	          0.00000000	         -0.04221762	         -0.00000001	          0.00000049	          0.00000003	          0.00000000	          0.00000000	          0.00000000	          0.00000000	          2.26058953	          0.00000000	          0.00000000	          0.00000000	          0.00000000	
          1.37000000	        -85.12126801	        599.62583177	         31.26166897	         -0.40398831	          0.00000000	         -0.04223239	         -0.00000002	          0.00000067	          0.00000003	          0.00000000	          0.00000000	          0.00000000	          0.00000000	          2.33344261	          0.00000000	          0.00000000	          0.00000000	          0.00000000	
          1.37500000	        -83.82072496	        612.05307863	         31.43113209	         -0.40305335	          0.00000000	         -0.04226129	         -0.00000004	          0.00000088	          0.00000003	          0.00000000	          0.00000000	          0.00000000	          0.00000000	          2.38213128	          0.00000000	          0.00000000	          0.00000000	          0.00000000	
          1.38000000	        -82.16961084	        622.71916316	         31.54038829	         -0.40236079	          0.00000000	         -0.04231718	         -0.00000005	          0.00000109	          0.00000003	          0.00000000	          0.00000000	          0.00000000	          0.00000000	          2.40442914	          0.00000000	          0.00000000	          0.00000000	          0.00000000	
          1.38500000	        -80.23107821	        631.58616550	         31.63920874	         -0.40181516	          0.00000000	         -0.04241210	         -0.00000008	          0.00000128	          0.00000003	          0.00000000	          0.00000000	          0.00000000	          0.00000000	          2.39939905	          0.00000000	          0.00000000	          0.00000000	          0.00000000	
          1.39000000	        -78.06676794	        638.67414085	         31.76915457	         -0.40133499	          0.00000000	         -0.04255558	         -0.00000010	          0.00000143	          0.00000002	          0.00000000	          0.00000000	          0.00000000	          0.00000000	          2.36779108	          0.00000000	          0.00000000	          0.00000000	          0.00000000	
          1.39500000	        -75.73439215	        644.05128784	         31.96286112	         -0.40085468	          0.00000000	         -0.04275352	         -0.00000013	          0.00000149	         -0.00000000	          0.00000000	          0.00000000	          0.00000000	          0.00000000	          2.31206801	          0.00000000	          0.00000000	          0.00000000	          0.00000000	
          1.40000000	        -73.28681443	        647.81721937	         32.24580645	         -0.40032390	          0.00000000	         -0.04301092	         -0.00000016	          0.00000139	         -0.00000003	          0.00000000	          0.00000000	          0.00000000	          0.00000000	          2.23595941	          0.00000000	          0.00000000	          0.00000000	          0.00000000	
          1.40500000	        -70.77190558	        650.09008180	         32.63748243	         -0.39970541	          0.00000000	         -0.04333246	         -0.00000018	          0.00000107	         -0.00000007	          0.00000000	          0.00000000	          0.00000000	          0.00000000	          2.14392109	          0.00000000	          0.00000000	          0.00000000	          0.00000000	
